<?xml version="1.0" standalone="no"?>
<!DOCTYPE svg PUBLIC "-//W3C//DTD SVG 20010904//EN"
 "http://www.w3.org/TR/2001/REC-SVG-20010904/DTD/svg10.dtd">
<svg version="1.0" xmlns="http://www.w3.org/2000/svg"
 width="1146.000000pt" height="1146.000000pt" viewBox="0 0 1146.000000 1146.000000"
 preserveAspectRatio="xMidYMid meet">
<metadata>
Created by potrace 1.14, written by Peter Selinger 2001-2017
</metadata>
<g transform="translate(0.000000,1146.000000) scale(0.100000,-0.100000)"
fill="#000000" stroke="none">
<path d="M5844 11445 c-44 -34 -127 -96 -252 -187 -73 -54 -138 -102 -145
-108 -6 -6 -59 -45 -117 -88 -170 -125 -802 -593 -838 -620 l-33 -25 4 34 c5
46 -10 109 -32 138 l-18 23 -43 -28 c-39 -26 -52 -29 -119 -28 -50 0 -102 8
-151 23 -127 39 -383 143 -419 170 -29 22 -45 26 -101 26 -57 0 -71 -4 -103
-28 -42 -32 -68 -75 -71 -121 -1 -17 -7 -31 -12 -31 -5 0 -30 13 -56 28 -73
44 -109 42 -275 -14 -151 -51 -253 -98 -332 -151 -59 -41 -79 -63 -103 -116
l-20 -44 -26 24 c-40 36 -85 51 -142 46 -81 -8 -139 -64 -155 -151 -5 -26 -11
-35 -19 -28 -6 5 -28 11 -50 14 -80 11 -165 -52 -187 -137 l-11 -43 -45 15
c-51 17 -114 7 -158 -26 -33 -24 -67 -87 -68 -126 l-1 -32 -55 0 c-67 -1 -110
-21 -146 -68 -34 -45 -45 -130 -22 -175 15 -30 15 -31 -6 -31 -33 -1 -99 -34
-126 -63 -13 -15 -29 -48 -36 -74 -15 -59 0 -122 40 -163 l26 -27 -31 -13
c-62 -26 -111 -108 -105 -177 4 -45 32 -97 67 -123 l31 -23 -29 -12 c-63 -27
-104 -93 -104 -169 0 -47 37 -113 78 -137 20 -13 39 -24 41 -25 2 -2 -6 -15
-16 -31 -31 -44 -40 -83 -32 -136 9 -57 45 -109 88 -127 17 -7 31 -15 31 -19
-1 -3 -7 -28 -14 -56 -15 -57 -7 -101 27 -153 23 -34 88 -72 124 -72 l21 0
-20 -37 c-53 -103 29 -253 139 -253 l30 0 -5 -53 c-8 -96 64 -186 150 -189
l36 -1 0 -51 c0 -28 3 -85 5 -126 6 -84 19 -1486 21 -2254 l1 -499 -50 -14
c-27 -8 -120 -36 -205 -63 -140 -44 -356 -101 -435 -115 -111 -19 -185 -28
-336 -40 -20 -2 -63 -6 -95 -9 -150 -15 -185 -16 -204 -6 -17 9 -20 8 -21 -12
-1 -13 -1 -26 0 -30 0 -4 -10 -10 -24 -14 -14 -3 -25 -9 -26 -13 0 -3 -2 -15
-4 -26 -2 -11 -6 -44 -9 -74 -3 -30 -8 -61 -10 -70 -5 -16 -16 -86 -21 -131
-4 -41 -16 -114 -20 -130 -2 -8 -7 -40 -10 -70 -3 -30 -8 -64 -10 -75 -4 -18
-10 -57 -20 -125 -2 -14 -8 -54 -14 -90 -5 -36 -13 -85 -16 -110 -3 -25 -8
-56 -10 -70 -2 -14 -7 -45 -10 -70 -3 -25 -8 -56 -10 -70 -3 -14 -7 -41 -10
-60 -2 -19 -6 -44 -9 -56 -2 -11 -7 -47 -10 -79 -4 -32 -8 -61 -10 -64 -2 -3
-7 -31 -11 -61 -7 -67 -11 -95 -19 -136 -3 -18 -8 -52 -11 -75 -3 -24 -10 -72
-16 -107 -9 -60 -8 -64 17 -96 21 -26 33 -33 53 -30 14 2 64 6 111 8 47 3 85
5 85 5 0 1 54 4 120 6 66 3 172 7 235 10 485 21 511 22 755 30 99 4 216 8 260
10 44 2 171 6 283 10 l203 7 -7 -29 c-12 -45 -8 -232 6 -298 18 -86 17 -93
-30 -169 -85 -139 -114 -239 -90 -310 10 -30 7 -49 -21 -148 -18 -62 -32 -124
-31 -138 3 -45 24 -124 44 -162 10 -21 16 -38 13 -38 -3 0 6 -17 19 -37 43
-66 60 -146 61 -273 0 -127 -10 -166 -73 -300 -29 -59 -36 -87 -37 -134 0 -57
1 -59 44 -97 60 -54 130 -74 256 -74 118 0 186 20 238 69 45 42 55 90 34 149
-9 23 -18 61 -21 84 l-5 42 27 -12 c27 -11 74 -36 155 -81 23 -12 79 -47 124
-75 249 -158 578 -182 716 -53 70 66 76 135 22 247 -19 40 -35 76 -35 79 0 4
12 4 28 1 29 -6 264 -6 372 0 36 2 151 6 255 9 105 4 263 9 352 12 l162 5 173
-122 c95 -67 202 -143 238 -168 36 -24 67 -48 68 -53 2 -4 8 -8 13 -8 5 0 64
-40 131 -88 68 -48 152 -108 187 -133 35 -24 85 -58 110 -76 25 -17 50 -29 56
-25 5 3 53 38 105 77 52 39 139 104 193 143 128 95 247 183 447 331 l165 123
195 -6 c204 -6 486 -16 605 -21 136 -6 341 -6 383 0 50 8 52 2 14 -62 -63
-107 -74 -179 -35 -231 30 -41 115 -88 184 -101 112 -22 297 -2 430 48 54 21
83 37 244 138 44 28 109 65 143 82 l62 31 0 -37 c0 -21 -9 -66 -20 -101 -18
-59 -19 -65 -4 -102 21 -52 57 -77 145 -99 159 -40 367 6 425 94 26 40 21 74
-23 161 -74 144 -88 201 -87 344 1 105 6 139 28 210 48 151 45 224 -9 305 -15
22 -20 35 -12 36 7 0 21 2 32 4 11 2 40 7 65 10 25 3 99 14 165 25 66 10 142
21 169 25 27 3 85 12 130 20 44 8 99 17 121 19 22 3 49 8 60 10 12 2 48 7 80
11 71 9 97 33 164 149 104 182 124 348 48 407 -12 10 -86 68 -164 130 -79 61
-143 116 -143 120 0 4 14 28 31 53 35 53 79 156 79 186 0 13 10 25 28 32 113
45 188 117 240 231 47 101 67 288 38 345 -8 15 -39 51 -69 79 l-55 52 30 38
c47 59 68 116 68 189 0 35 -3 64 -7 64 -5 0 -19 9 -32 19 l-24 18 23 57 c13
31 28 56 33 56 5 0 46 -13 92 -29 l83 -30 15 32 c9 18 27 59 42 92 14 33 30
69 35 80 5 11 25 54 43 96 31 68 39 78 79 98 83 40 142 187 107 264 -6 14 -56
52 -122 92 -62 37 -213 130 -337 205 -124 75 -268 163 -320 195 -144 88 -243
138 -370 186 -63 23 -117 44 -120 46 -4 4 -6 98 -14 1108 -21 2443 -22 2477
-31 2498 -5 11 -2 24 8 35 8 9 18 27 21 40 8 23 30 30 41 12 3 -5 13 -10 21
-10 12 0 12 5 -1 36 -19 46 -19 43 9 38 24 -4 24 -2 21 43 -3 49 6 66 130 263
51 81 165 263 343 548 124 199 188 310 185 322 -3 11 -22 37 -43 60 l-38 41
27 32 c15 18 36 43 47 55 10 13 27 33 38 45 10 12 94 112 186 222 l168 200 25
130 c25 124 44 230 53 285 8 48 14 85 19 110 3 14 10 52 15 85 6 33 13 72 16
88 8 37 -18 36 -57 -2 -65 -66 -171 -154 -299 -249 -220 -163 -177 -99 -482
-717 -22 -44 -41 -81 -42 -83 -2 -1 -22 4 -45 13 -52 18 -73 10 -107 -40 -15
-22 -73 -107 -129 -190 -207 -302 -296 -434 -430 -631 -132 -197 -136 -202
-176 -208 -35 -6 -38 -8 -29 -26 8 -15 6 -24 -10 -40 -14 -14 -19 -28 -15 -41
6 -16 1 -19 -30 -19 -29 0 -36 -3 -31 -16 7 -18 0 -15 -69 37 -27 20 -82 59
-120 85 -39 27 -198 139 -354 249 -156 110 -306 216 -335 236 -66 46 -305 214
-331 233 -11 8 -238 168 -505 356 -267 187 -505 356 -530 374 -25 18 -213 151
-419 296 -206 144 -398 279 -426 299 -28 20 -77 54 -109 76 -31 22 -81 57
-109 78 -75 56 -81 58 -103 42z m-2345 -999 c37 -20 78 -25 121 -15 31 7 38 4
76 -31 63 -58 206 -126 381 -181 52 -16 70 -26 63 -34 -5 -7 -67 -54 -137
-106 -71 -51 -234 -172 -363 -268 -265 -197 -353 -262 -560 -415 -80 -59 -156
-116 -170 -126 -14 -11 -59 -44 -100 -74 -41 -31 -79 -59 -85 -64 -69 -55
-104 -73 -123 -63 -26 14 -92 14 -126 1 -24 -9 -26 -7 -26 19 0 71 -56 154
-112 166 -33 8 -33 6 -8 55 11 22 20 56 20 76 0 45 -33 117 -65 142 l-23 18
40 33 c81 68 90 177 20 250 -33 35 -35 40 -20 50 40 25 74 87 77 140 1 9 8 11
24 6 61 -18 127 -5 178 37 29 24 57 88 55 127 l-1 38 35 -22 c50 -32 75 -38
148 -36 95 2 203 27 332 78 194 76 240 111 266 201 l16 54 19 -21 c11 -11 32
-27 48 -35z m-1480 -777 c7 -22 28 -58 48 -80 32 -35 33 -40 17 -46 -53 -20
-95 -104 -88 -175 6 -66 78 -148 129 -148 11 0 10 -7 -5 -32 -83 -142 51 -315
203 -263 20 7 37 12 38 11 6 -10 2 -61 -6 -71 -5 -8 -95 -77 -200 -154 -104
-77 -199 -147 -209 -155 -16 -13 -19 -28 -18 -98 1 -136 3 -621 2 -645 0 -14
-6 -23 -16 -23 -11 0 -14 6 -8 23 31 97 -33 208 -130 224 -20 3 -36 7 -36 8 0
1 7 20 16 41 36 85 -2 194 -81 231 -33 16 -33 17 -19 44 36 70 5 179 -63 220
-21 12 -40 24 -42 25 -2 2 6 15 17 31 56 79 45 187 -25 240 l-36 27 26 11
c111 45 141 200 57 291 -20 20 -20 20 14 37 19 8 47 33 63 53 24 32 28 47 28
98 0 34 -4 71 -8 84 -7 18 -5 22 13 22 83 0 168 95 164 182 -1 14 5 16 35 12
20 -2 50 0 66 5 17 5 33 10 36 10 3 1 11 -17 18 -40z m1091 -7657 c53 -37 153
-107 222 -156 l126 -89 -56 -28 c-70 -35 -106 -67 -134 -122 -30 -57 -33 -155
-8 -243 l19 -66 -28 5 c-16 4 -87 30 -158 60 -201 85 -264 104 -375 114 l-66
6 11 26 c6 14 14 28 17 31 3 3 16 25 30 50 13 25 34 63 46 85 32 58 72 131
111 205 19 36 38 70 43 75 4 6 22 38 40 72 27 52 35 61 48 53 10 -6 60 -40
112 -78z m-286 -1558 c3 -8 2 -12 -4 -9 -6 3 -10 10 -10 16 0 14 7 11 14 -7z
m21 -64 c3 -5 1 -10 -4 -10 -6 0 -11 5 -11 10 0 6 2 10 4 10 3 0 8 -4 11 -10z"/>
</g>
</svg>
